<svg version="1.2" xmlns="http://www.w3.org/2000/svg" viewBox="0 0 2000 698" width="2000" height="698"><style>.a{fill:#8d28e4}.b{fill:#fff}.c{display:none;fill:#8d28e4}.d{display:none;fill:#fff}</style><path fill-rule="evenodd" class="a" d="m195 109h1654c34.2 0 62 27.8 62 62v379c0 34.2-27.8 62-62 62h-1654c-34.2 0-62-27.8-62-62v-379c0-34.2 27.8-62 62-62z"/><path fill-rule="evenodd" class="b" d="m680.1 554.8l153.9-352.8h79l149.5 352.9h-96.2l-36.3-90.9 15.9-19-30.9-4-43-101-42 99-25 3 9 22-36.6 91.3z"/><path fill-rule="evenodd" class="b" d="m1083.5 554.8l153.5-352.8 79 1 146.1 350.6-94.7 0.7-36.4-92.3 15-18-30-3-39-101-44 102-28 5 11 20-35.7 88.1z"/><path fill-rule="evenodd" class="b" d="m276.6 555l151.4-353 78 2 152 350.8-96.3 0.1-37.7-92.9 13-19-28-3-40-98-41 99-30 5 11 21-32.6 88.5z"/><path class="b" d="m1495.5 207v348h90.1l1.2-22.8h1.1q5.9 12.8 25.3 20.1 19.6 7.3 39.4 7.3 47.3 0 74.6-33.1 27.6-33.1 27.6-88.9v-7.3q0-55.2-27.1-88.3-27.2-33.3-74.8-33.3-19.4 0-35.8 6.4-16.4 6.4-28.5 19.6v-127.7zm93 256.6v-58.6q3.4-11.2 12.3-19.7 9.1-8.4 24.2-8.4 17.8 0 26 12.1 8.4 12.1 8.4 35.1v20.3q0 23-8.6 35.4-8.5 12-24.9 12-16.4 0-25.3-8.4-8.7-8.4-12.1-19.8z"/><path fill-rule="evenodd" class="c" d="m1691 355v158h-130v-158z"/><path fill-rule="evenodd" class="d" d="m1580.6 486.5l21.6-50.8-39-23.7 49.5-1 16.3-38.3 19.3 37.7 46.2-0.9-34.7 23.5 28.2 55-57.6-35.1z"/></svg>